<mxfile host="app.diagrams.net" modified="2024-07-02T20:18:15.634Z" agent="Mozilla/5.0 (X11; Linux x86_64; rv:122.0) Gecko/20100101 Firefox/122.0" version="24.4.15" etag="WkKqFwr6Hbun7JQPd6SZ" type="github">
  <diagram name="Page-1" id="OdR0Gze4ak8wOGlbdrPr">
    <mxGraphModel>
      <root>
        <mxCell id="0" />
        <mxCell id="1" parent="0" />
      </root>
    </mxGraphModel>
  </diagram>
</mxfile>
